# xmcd CD database file
#
# Track frame offsets:
#	150
#	15467
#	39352
#	61772
#	83975
#	101837
#	126937
#	144430
#	167202
#
# Disc length: 2432 seconds
#
# Revision: 2
# Processed by: cddbd v1.5.1PL0 Copyright (c) Steve Scherf et al.
# Submitted via: CDex 1.51
#
DISCID=70097e09
DTITLE=Muddy Waters - I'm Ready
DYEAR=1978
DGENRE=Blues
TTITLE0=I'm Ready
TTITLE1=33 Years
TTITLE2=Who Do You Trust ?
TTITLE3=Copper Brown
TTITLE4=I'm Your Hoochie Coochie Man
TTITLE5=Mamie
TTITLE6=Rock Me
TTITLE7=Screamin' And Cryin'
TTITLE8=Good Morning Little School Girl
EXTD=YEAR: 1978
EXTT0=
EXTT1=
EXTT2=
EXTT3=
EXTT4=
EXTT5=
EXTT6=
EXTT7=
EXTT8=
PLAYORDER=
